<svg id="Calque_1" data-name="Calque 1" xmlns="http://www.w3.org/2000/svg" viewBox="0 0 544.49 473.85"><defs><style>.cls-1{opacity:0.6;}.cls-2,.cls-3{isolation:isolate;}.cls-3,.cls-4{font-size:160px;}.cls-11,.cls-13,.cls-3,.cls-4,.cls-5,.cls-6,.cls-8,.cls-9{fill:#fff;}.cls-11,.cls-13,.cls-3,.cls-4{font-family:OpenSans, Open Sans;}.cls-6{fill-opacity:0;}.cls-7{opacity:0.16;}.cls-8{fill-opacity:0.64;}.cls-9{fill-opacity:0.74;}.cls-10{opacity:0.39;}.cls-11{font-size:125px;}.cls-12{opacity:0.2;}.cls-13{font-size:100px;}.cls-14{opacity:0.89;}</style></defs><title>marmicode-io-blanc</title><g id="fUAuJjhB" class="cls-1"><g id="b3TNvxnChm" class="cls-2"><text class="cls-3" transform="translate(51.91 269.7) rotate(-22.25)">{</text></g><g id="b3TNvxnChm-2" data-name="b3TNvxnChm" class="cls-2"><g class="cls-2"><text class="cls-4" transform="translate(51.91 269.7) rotate(-22.25)">{</text></g></g></g><path id="c1jn3RzpBj" class="cls-5" d="M562.27,403.35Q553,350.8,386.13,330T197.35,357.78Z" transform="translate(-77.7 -116.17)"/><path id="c1jn3RzpBj-2" data-name="c1jn3RzpBj" class="cls-6" d="M562.27,403.35Q553,350.8,386.13,330T197.35,357.78Z" transform="translate(-77.7 -116.17)"/><path id="a3r2VTbhYD" class="cls-5" d="M423.6,316.4a18.36,18.36,0,1,1-4.82-25.51A18.38,18.38,0,0,1,423.6,316.4Z" transform="translate(-77.7 -116.17)"/><path id="a3r2VTbhYD-2" data-name="a3r2VTbhYD" class="cls-6" d="M423.6,316.4a18.36,18.36,0,1,1-4.82-25.51A18.38,18.38,0,0,1,423.6,316.4Z" transform="translate(-77.7 -116.17)"/><g class="cls-7"><path id="b13zgKp7IZ" class="cls-8" d="M422.18,310.5a8.52,8.52,0,1,1-2.24-11.84A8.53,8.53,0,0,1,422.18,310.5Z" transform="translate(-77.7 -116.17)"/></g><path id="anrjoBAaf" class="cls-5" d="M570.72,425.46l1.56,12,49.91-8.3V456l-53,7.79,1.55,99.31q.16,14.49-10.36,21.18t-31.74,5.59H216.9q-22.53,1.23-33.48-5.47t-10.37-21.3l5.69-98.21L121.49,456V426.55l57.25,10.94v-12Z" transform="translate(-77.7 -116.17)"/><path id="anrjoBAaf-2" data-name="anrjoBAaf" class="cls-6" d="M570.72,425.46l1.56,12,49.91-8.3V456l-53,7.79,1.55,99.31q.16,14.49-10.36,21.18t-31.74,5.59H216.9q-22.53,1.23-33.48-5.47t-10.37-21.3l5.69-98.21L121.49,456V426.55l57.25,10.94v-12Z" transform="translate(-77.7 -116.17)"/><path id="bk8B5Ego6" class="cls-9" d="M558.74,570.39l-3.3-132.93-65.67-.59Z" transform="translate(-77.7 -116.17)"/><path id="bk8B5Ego6-2" data-name="bk8B5Ego6" class="cls-6" d="M558.74,570.39l-3.3-132.93-65.67-.59Z" transform="translate(-77.7 -116.17)"/><g id="c4f0gPyhnM" class="cls-10"><g id="a1GcYBne7j" class="cls-2"><g class="cls-2"><text class="cls-11" transform="translate(98.19 171.53) rotate(24.69)">)</text></g></g><g id="a1GcYBne7j-2" data-name="a1GcYBne7j" class="cls-2"><g class="cls-2"><text class="cls-11" transform="translate(98.19 171.53) rotate(24.69)">)</text></g></g></g><g id="f1Mk8TX7rM" class="cls-12"><g id="brLj87YYt" class="cls-2"><g class="cls-2"><text class="cls-13" transform="matrix(1, 0.06, -0.06, 1, 73.33, 85.52)">[</text></g></g><g id="brLj87YYt-2" data-name="brLj87YYt" class="cls-2"><g class="cls-2"><text class="cls-13" transform="matrix(1, 0.06, -0.06, 1, 73.33, 85.52)">[</text></g></g></g><g class="cls-14"><path id="a1996GNHkB" class="cls-9" d="M498.8,381.24l23.4-4.68-64.86-21.84Z" transform="translate(-77.7 -116.17)"/><path id="a1996GNHkB-2" data-name="a1996GNHkB" class="cls-6" d="M498.8,381.24l23.4-4.68-64.86-21.84Z" transform="translate(-77.7 -116.17)"/></g></svg>
