<?xml version="1.0" encoding="UTF-8" standalone="no"?>
<!DOCTYPE svg PUBLIC "-//W3C//DTD SVG 1.1//EN" "http://www.w3.org/Graphics/SVG/1.1/DTD/svg11.dtd">
<svg version="1.1" xmlns="http://www.w3.org/2000/svg" xmlns:xlink="http://www.w3.org/1999/xlink" preserveAspectRatio="xMidYMid meet" viewBox="0 0 640 640" width="640" height="640"><defs><text id="b3TNvxnChm" x="243.94" y="308.06" font-size="160" font-family="Open Sans" font-weight="normal" font-style="normal" letter-spacing="0" alignment-baseline="before-edge" transform="matrix(0.9255499725894039 -0.3786254722542499 0.3786254722542499 0.9255499725894039 -283.6066208707858 -8.147698748227185)" style="line-height:100%" xml:space="preserve" dominant-baseline="text-before-edge"><tspan x="243.94" dy="0em" alignment-baseline="before-edge" dominant-baseline="text-before-edge" text-anchor="start">{</tspan></text><path d="M521.27 339.49C515.08 304.46 456.36 280 345.13 266.11C233.9 252.22 170.97 261.49 156.35 293.92L521.27 339.49Z" id="c1jn3RzpBj"></path><path d="M382.6 252.54C376.89 260.91 365.46 263.07 357.09 257.37C348.72 251.66 346.56 240.22 352.26 231.85C357.97 223.48 369.41 221.32 377.78 227.03C386.15 232.74 388.31 244.17 382.6 252.54Z" id="a3r2VTbhYD"></path><path d="M381.18 246.64C378.53 250.52 373.22 251.52 369.34 248.87C365.46 246.23 364.45 240.92 367.1 237.04C369.75 233.15 375.06 232.15 378.94 234.8C382.82 237.45 383.83 242.75 381.18 246.64Z" id="b13zgKp7IZ"></path><path d="M529.72 361.6L531.28 373.63L581.19 365.33L581.19 392.1L528.17 399.89L529.72 499.2C529.83 508.86 526.38 515.92 519.36 520.38C512.34 524.84 501.76 526.71 487.62 525.97L175.9 525.97C160.88 526.79 149.72 524.96 142.42 520.5C135.11 516.04 131.65 508.94 132.05 499.2L137.74 400.99L80.49 392.1L80.49 362.69L137.74 373.63L137.74 361.6L529.72 361.6Z" id="anrjoBAaf"></path><path d="M457.8 317.38L481.2 312.7L416.34 290.86L457.8 317.38Z" id="a1996GNHkB"></path><path d="M517.74 506.53L514.44 373.6L448.77 373.01L517.74 506.53Z" id="bk8B5Ego6"></path><text id="a1GcYBne7j" x="243.94" y="308.06" font-size="125" font-family="Open Sans" font-weight="normal" font-style="normal" letter-spacing="0" alignment-baseline="before-edge" transform="matrix(0.908588328560886 0.41769276891386975 -0.41769276891386975 0.908588328560886 123.88651465450454 -314.6193726727886)" style="line-height:100%" xml:space="preserve" dominant-baseline="text-before-edge"><tspan x="243.94" dy="0em" alignment-baseline="before-edge" dominant-baseline="text-before-edge" text-anchor="start">)</tspan></text><text id="brLj87YYt" x="243.94" y="308.06" font-size="100" font-family="Open Sans" font-weight="normal" font-style="normal" letter-spacing="0" alignment-baseline="before-edge" transform="matrix(0.9979573155855082 0.06388424116608299 -0.06388424116608299 0.9979573155855082 -97.78401370094652 -309.17579301983653)" style="line-height:100%" xml:space="preserve" dominant-baseline="text-before-edge"><tspan x="243.94" dy="0em" alignment-baseline="before-edge" dominant-baseline="text-before-edge" text-anchor="start">[</tspan></text><text id="ap4QN8cv9" x="107.5" y="547.21" font-size="40" font-family="Roboto Mono" font-weight="400" font-style="normal" letter-spacing="0" alignment-baseline="before-edge" transform="matrix(1 0 0 1 68.47656249999997 -77.21153846153845)" style="line-height:100%" xml:space="preserve" dominant-baseline="text-before-edge"></text></defs><g><g><g id="fUAuJjhB"><use xlink:href="#b3TNvxnChm" opacity="1" fill="#777777" fill-opacity="1"></use><g><use xlink:href="#b3TNvxnChm" opacity="1" fill-opacity="0" stroke="#081318" stroke-width="0" stroke-opacity="1"></use></g></g><g><use xlink:href="#c1jn3RzpBj" opacity="1" fill="#380030" fill-opacity="1"></use><g><use xlink:href="#c1jn3RzpBj" opacity="1" fill-opacity="0" stroke="#000000" stroke-width="2" stroke-opacity="1"></use></g></g><g><use xlink:href="#a3r2VTbhYD" opacity="1" fill="#380030" fill-opacity="1"></use><g><use xlink:href="#a3r2VTbhYD" opacity="1" fill-opacity="0" stroke="#000000" stroke-width="2" stroke-opacity="1"></use></g></g><g><use xlink:href="#b13zgKp7IZ" opacity="1" fill="#ffffff" fill-opacity="0.64"></use></g><g><use xlink:href="#anrjoBAaf" opacity="1" fill="#380030" fill-opacity="1"></use><g><use xlink:href="#anrjoBAaf" opacity="1" fill-opacity="0" stroke="#000000" stroke-width="2" stroke-opacity="1"></use></g></g><g><use xlink:href="#a1996GNHkB" opacity="1" fill="#ffffff" fill-opacity="0.74"></use><g><use xlink:href="#a1996GNHkB" opacity="1" fill-opacity="0" stroke="#000000" stroke-width="0" stroke-opacity="1"></use></g></g><g><use xlink:href="#bk8B5Ego6" opacity="1" fill="#ffffff" fill-opacity="0.74"></use><g><use xlink:href="#bk8B5Ego6" opacity="1" fill-opacity="0" stroke="#000000" stroke-width="0" stroke-opacity="1"></use></g></g><g id="c4f0gPyhnM"><use xlink:href="#a1GcYBne7j" opacity="1" fill="#777777" fill-opacity="0.66"></use><g><use xlink:href="#a1GcYBne7j" opacity="1" fill-opacity="0" stroke="#081318" stroke-width="0" stroke-opacity="0.66"></use></g></g><g id="f1Mk8TX7rM"><use xlink:href="#brLj87YYt" opacity="1" fill="#a2a2a2" fill-opacity="0.33"></use><g><use xlink:href="#brLj87YYt" opacity="1" fill-opacity="0" stroke="#777777" stroke-width="0" stroke-opacity="0.4"></use></g></g><g id="e19OMLeITn"><use xlink:href="#ap4QN8cv9" opacity="1" fill="#ffffff" fill-opacity="1"></use></g></g></g></svg>
